<?xml version="1.0" encoding="UTF-8"?>
<svg version="1.1" xmlns="http://www.w3.org/2000/svg" width="512" height="512">
<path d="M0 0 C1.29686271 -0.00507454 2.59372542 -0.01014909 3.929887 -0.0153774 C5.37760139 -0.0159791 6.82531582 -0.01647817 8.27303028 -0.01688576 C9.80434478 -0.02089991 11.33565821 -0.02533806 12.86697036 -0.03016531 C17.0861321 -0.04214181 21.3052824 -0.04778175 25.52445781 -0.05234647 C30.07062048 -0.05829845 34.61676943 -0.06990926 39.16292286 -0.08063698 C50.14734024 -0.10516963 61.13176216 -0.11978908 72.11619851 -0.13269705 C75.21783451 -0.13640824 78.31947007 -0.14038153 81.42110562 -0.14444971 C100.6753223 -0.16968466 119.92953966 -0.19174121 139.18376923 -0.20417786 C143.64449726 -0.20710763 148.10522527 -0.21006928 152.56595325 -0.21308327 C153.67466696 -0.21382932 154.78338067 -0.21457537 155.92569176 -0.21534403 C173.89062192 -0.22800064 191.85545317 -0.26122739 209.82033708 -0.3028851 C228.25775368 -0.34528866 246.69511963 -0.36887104 265.13258487 -0.37409842 C275.48729515 -0.37751425 285.84185085 -0.38928972 296.19651318 -0.42220116 C305.01413457 -0.45018107 313.8315697 -0.46121002 322.64923205 -0.4500057 C327.14850989 -0.44481384 331.64739752 -0.44773989 336.14661884 -0.47247124 C340.26679589 -0.4949301 344.38630167 -0.49425041 348.50649021 -0.47526737 C349.99577505 -0.47246261 351.48510509 -0.47809243 352.97431716 -0.4930803 C367.73524961 -0.63253709 367.73524961 -0.63253709 373.84354115 5.13701439 C378.25043843 10.7868827 378.99126262 15.06926726 378.97776222 22.04261875 C378.98011445 22.86085638 378.98246668 23.679094 378.98489019 24.5221267 C378.99159279 27.28758315 378.99112159 30.05299275 378.99071217 32.81845665 C378.99401 34.81174838 378.9977354 36.80503945 379.00185364 38.79832965 C379.01189082 44.29446942 379.01559319 49.79059827 379.01824296 55.28674591 C379.0221409 61.20715162 379.03171956 67.12754865 379.04045582 73.04794884 C379.05929922 86.67825315 379.06947826 100.30855898 379.0779165 113.93887291 C379.08212192 120.67317349 379.08734405 127.40747318 379.09260103 134.141773 C379.11049176 157.18991409 379.12548823 180.23805543 379.13292122 203.28620243 C379.13339598 204.7333802 379.13387187 206.18055796 379.13434888 207.62773572 C379.13458526 208.34541209 379.13482163 209.06308846 379.13506517 209.8025126 C379.13626638 213.43867141 379.13748183 217.0748302 379.13870716 220.710989 C379.13894731 221.43259813 379.13918746 222.15420726 379.13943489 222.89768334 C379.1473287 246.29661599 379.17076193 269.69549796 379.2032631 293.09440848 C379.23755512 317.82772986 379.25727177 342.56102159 379.26056546 367.29436713 C379.26098301 370.00915167 379.26146257 372.72393619 379.26198864 375.4387207 C379.26211183 376.10718665 379.26223502 376.7756526 379.26236195 377.46437509 C379.26455026 387.5589551 379.27785357 397.65348213 379.29702663 407.74804306 C379.31869637 419.22996082 379.3268024 430.71178602 379.31705985 442.19372191 C379.31250441 448.05390231 379.31447369 453.91389157 379.3338213 459.77404594 C379.35137672 465.13759675 379.35051725 470.50081589 379.334924 475.86436985 C379.33253633 477.80586724 379.33693117 479.74738714 379.34875266 481.68885001 C379.36382287 484.32703875 379.35423311 486.96404493 379.33852577 489.60220432 C379.34874798 490.35683386 379.35897019 491.11146341 379.36950216 491.88896051 C379.2983488 497.36074989 377.84912604 501.548778 374.84354115 506.13701439 C369.98167924 510.7557832 366.23643758 512.38634606 359.55844784 512.39148998 C358.25836068 512.39732218 356.95827353 512.40315437 355.61878979 512.4091633 C354.17263913 512.40552995 352.72648895 512.40170557 351.28033924 512.3977108 C349.74673554 512.40073027 348.21313335 512.40461872 346.67953384 512.40930337 C342.45874363 512.4196186 338.23803803 512.41739261 334.01724076 512.41312277 C329.46772381 512.41066191 324.91822758 512.41966175 320.36871815 512.42716026 C311.45306748 512.43992732 302.5374469 512.44169844 293.62178864 512.43936 C286.37650793 512.43757886 279.13123638 512.4393221 271.88595676 512.44358444 C270.85579668 512.44417963 269.8256366 512.44477482 268.76425954 512.44538805 C266.67165606 512.44659976 264.57905258 512.4478139 262.48644911 512.44903042 C242.8496979 512.45991377 223.21296385 512.45773976 203.57621168 512.45164558 C185.60355418 512.44647616 167.63095088 512.45773111 149.65830411 512.47674379 C131.21408096 512.4961061 112.76988348 512.50438099 94.3256501 512.50062054 C83.96659651 512.498706 73.60758905 512.50122065 63.24854374 512.51533508 C54.42944941 512.52722942 45.6104296 512.52867573 36.79133429 512.51654492 C32.29037247 512.51064241 27.7895471 512.50959454 23.28859425 512.52154732 C19.1693108 512.53235953 15.05027848 512.52935865 10.93100701 512.51528563 C9.43977815 512.51262578 7.9485299 512.51504544 6.45731999 512.5230215 C4.43167385 512.53310515 2.4059571 512.52292801 0.38031673 512.5117445 C-0.74528436 512.51179951 -1.87088545 512.51185453 -3.03059566 512.51191121 C-8.15925105 511.8968118 -12.10110401 509.77459504 -15.40645885 505.82451439 C-15.8859901 505.27150658 -16.36552135 504.71849876 -16.85958385 504.14873314 C-20.34802369 498.73744846 -20.41819617 493.46778472 -20.28145885 487.26201439 C-20.27243542 486.47826439 -20.26341198 485.69451439 -20.2541151 484.88701439 C-20.23073949 482.97021384 -20.19487539 481.05357248 -20.15645885 479.13701439 C-21.00208385 479.18342064 -21.84770885 479.22982689 -22.71895885 479.27763939 C-31.74335144 479.56477915 -36.9515829 478.57736744 -43.90645885 472.88701439 C-49.27119677 466.3301125 -50.90559321 460.95767402 -50.5978651 452.39092064 C-49.64523894 445.36846407 -46.80087836 440.09335504 -41.28145885 435.63701439 C-34.17040829 430.94053696 -28.89990249 431.13701439 -20.15645885 431.13701439 C-20.15645885 420.90701439 -20.15645885 410.67701439 -20.15645885 400.13701439 C-23.12645885 400.13701439 -26.09645885 400.13701439 -29.15645885 400.13701439 C-36.10084019 398.85449351 -42.46219741 395.78620394 -46.6994276 390.04717064 C-50.60295306 383.30074149 -51.214792 376.80013033 -50.15645885 369.13701439 C-48.10635263 362.35421613 -43.73821972 357.46452078 -37.65645885 353.88701439 C-33.15645885 352.13701439 -33.15645885 352.13701439 -20.15645885 351.13701439 C-20.15645885 340.90701439 -20.15645885 330.67701439 -20.15645885 320.13701439 C-24.11645885 320.13701439 -28.07645885 320.13701439 -32.15645885 320.13701439 C-39.98754148 317.13206408 -45.5204842 313.47259067 -49.28927135 305.84404564 C-51.35886726 299.38355032 -51.43384855 290.9670752 -48.65645885 284.69951439 C-45.47872513 279.45963431 -40.79798194 275.51781055 -35.40645885 272.69951439 C-30.39418761 271.8320059 -25.243249 272.13701439 -20.15645885 272.13701439 C-20.15645885 261.57701439 -20.15645885 251.01701439 -20.15645885 240.13701439 C-24.11645885 240.13701439 -28.07645885 240.13701439 -32.15645885 240.13701439 C-39.40657667 238.08281434 -45.06822699 233.33461944 -49.15645885 227.07451439 C-51.50377165 220.29338853 -51.52958938 211.20422234 -48.59395885 204.63701439 C-44.82763134 198.44379273 -39.06880076 194.17672184 -32.15645885 192.13701439 C-28.19645885 192.13701439 -24.23645885 192.13701439 -20.15645885 192.13701439 C-20.15645885 181.90701439 -20.15645885 171.67701439 -20.15645885 161.13701439 C-24.44645885 160.80701439 -28.73645885 160.47701439 -33.15645885 160.13701439 C-40.6333498 157.22933458 -46.00648713 152.98582591 -49.42208385 145.56670189 C-51.52939876 138.59462811 -51.10935094 131.33601423 -48.15645885 124.69951439 C-44.69146735 118.69678263 -39.90528956 114.70664443 -33.21895885 112.76201439 C-29.15645885 112.13701439 -29.15645885 112.13701439 -20.15645885 112.13701439 C-20.15645885 101.90701439 -20.15645885 91.67701439 -20.15645885 81.13701439 C-23.45645885 81.13701439 -26.75645885 81.13701439 -30.15645885 81.13701439 C-37.23744394 79.36676812 -42.35254008 77.10552376 -46.63302135 71.04717064 C-50.56696726 64.26715773 -51.22218727 57.85367756 -50.15645885 50.13701439 C-48.10195901 43.3396798 -43.70455899 38.471163 -37.65645885 34.82451439 C-32.12547387 32.1760235 -26.13862175 32.80872496 -20.15645885 33.13701439 C-20.19126354 32.00263939 -20.22606823 30.86826439 -20.2619276 29.69951439 C-20.65779422 11.84988876 -20.65779422 11.84988876 -15.28145885 6.14873314 C-10.2109765 1.49768407 -6.94632456 0.01439606 0 0 Z " fill="#E68B37" transform="translate(92.1564588546753,-0.13701438903808594)"/>
<path d="M0 0 C1.29686271 -0.00507454 2.59372542 -0.01014909 3.929887 -0.0153774 C5.37760139 -0.0159791 6.82531582 -0.01647817 8.27303028 -0.01688576 C9.80434478 -0.02089991 11.33565821 -0.02533806 12.86697036 -0.03016531 C17.0861321 -0.04214181 21.3052824 -0.04778175 25.52445781 -0.05234647 C30.07062048 -0.05829845 34.61676943 -0.06990926 39.16292286 -0.08063698 C50.14734024 -0.10516963 61.13176216 -0.11978908 72.11619851 -0.13269705 C75.21783451 -0.13640824 78.31947007 -0.14038153 81.42110562 -0.14444971 C100.6753223 -0.16968466 119.92953966 -0.19174121 139.18376923 -0.20417786 C143.64449726 -0.20710763 148.10522527 -0.21006928 152.56595325 -0.21308327 C153.67466696 -0.21382932 154.78338067 -0.21457537 155.92569176 -0.21534403 C173.89062192 -0.22800064 191.85545317 -0.26122739 209.82033708 -0.3028851 C228.25775368 -0.34528866 246.69511963 -0.36887104 265.13258487 -0.37409842 C275.48729515 -0.37751425 285.84185085 -0.38928972 296.19651318 -0.42220116 C305.01413457 -0.45018107 313.8315697 -0.46121002 322.64923205 -0.4500057 C327.14850989 -0.44481384 331.64739752 -0.44773989 336.14661884 -0.47247124 C340.26679589 -0.4949301 344.38630167 -0.49425041 348.50649021 -0.47526737 C349.99577505 -0.47246261 351.48510509 -0.47809243 352.97431716 -0.4930803 C367.73524961 -0.63253709 367.73524961 -0.63253709 373.84354115 5.13701439 C378.25043843 10.7868827 378.99126262 15.06926726 378.97776222 22.04261875 C378.98011445 22.86085638 378.98246668 23.679094 378.98489019 24.5221267 C378.99159279 27.28758315 378.99112159 30.05299275 378.99071217 32.81845665 C378.99401 34.81174838 378.9977354 36.80503945 379.00185364 38.79832965 C379.01189082 44.29446942 379.01559319 49.79059827 379.01824296 55.28674591 C379.0221409 61.20715162 379.03171956 67.12754865 379.04045582 73.04794884 C379.05929922 86.67825315 379.06947826 100.30855898 379.0779165 113.93887291 C379.08212192 120.67317349 379.08734405 127.40747318 379.09260103 134.141773 C379.11049176 157.18991409 379.12548823 180.23805543 379.13292122 203.28620243 C379.13339598 204.7333802 379.13387187 206.18055796 379.13434888 207.62773572 C379.13458526 208.34541209 379.13482163 209.06308846 379.13506517 209.8025126 C379.13626638 213.43867141 379.13748183 217.0748302 379.13870716 220.710989 C379.13894731 221.43259813 379.13918746 222.15420726 379.13943489 222.89768334 C379.1473287 246.29661599 379.17076193 269.69549796 379.2032631 293.09440848 C379.23755512 317.82772986 379.25727177 342.56102159 379.26056546 367.29436713 C379.26098301 370.00915167 379.26146257 372.72393619 379.26198864 375.4387207 C379.26211183 376.10718665 379.26223502 376.7756526 379.26236195 377.46437509 C379.26455026 387.5589551 379.27785357 397.65348213 379.29702663 407.74804306 C379.31869637 419.22996082 379.3268024 430.71178602 379.31705985 442.19372191 C379.31250441 448.05390231 379.31447369 453.91389157 379.3338213 459.77404594 C379.35137672 465.13759675 379.35051725 470.50081589 379.334924 475.86436985 C379.33253633 477.80586724 379.33693117 479.74738714 379.34875266 481.68885001 C379.36382287 484.32703875 379.35423311 486.96404493 379.33852577 489.60220432 C379.34874798 490.35683386 379.35897019 491.11146341 379.36950216 491.88896051 C379.2983488 497.36074989 377.84912604 501.548778 374.84354115 506.13701439 C369.98167924 510.7557832 366.23643758 512.38634606 359.55844784 512.39148998 C358.25836068 512.39732218 356.95827353 512.40315437 355.61878979 512.4091633 C354.17263913 512.40552995 352.72648895 512.40170557 351.28033924 512.3977108 C349.74673554 512.40073027 348.21313335 512.40461872 346.67953384 512.40930337 C342.45874363 512.4196186 338.23803803 512.41739261 334.01724076 512.41312277 C329.46772381 512.41066191 324.91822758 512.41966175 320.36871815 512.42716026 C311.45306748 512.43992732 302.5374469 512.44169844 293.62178864 512.43936 C286.37650793 512.43757886 279.13123638 512.4393221 271.88595676 512.44358444 C270.85579668 512.44417963 269.8256366 512.44477482 268.76425954 512.44538805 C266.67165606 512.44659976 264.57905258 512.4478139 262.48644911 512.44903042 C242.8496979 512.45991377 223.21296385 512.45773976 203.57621168 512.45164558 C185.60355418 512.44647616 167.63095088 512.45773111 149.65830411 512.47674379 C131.21408096 512.4961061 112.76988348 512.50438099 94.3256501 512.50062054 C83.96659651 512.498706 73.60758905 512.50122065 63.24854374 512.51533508 C54.42944941 512.52722942 45.6104296 512.52867573 36.79133429 512.51654492 C32.29037247 512.51064241 27.7895471 512.50959454 23.28859425 512.52154732 C19.1693108 512.53235953 15.05027848 512.52935865 10.93100701 512.51528563 C9.43977815 512.51262578 7.9485299 512.51504544 6.45731999 512.5230215 C4.43167385 512.53310515 2.4059571 512.52292801 0.38031673 512.5117445 C-0.74528436 512.51179951 -1.87088545 512.51185453 -3.03059566 512.51191121 C-8.15925105 511.8968118 -12.10110401 509.77459504 -15.40645885 505.82451439 C-15.8859901 505.27150658 -16.36552135 504.71849876 -16.85958385 504.14873314 C-20.34802369 498.73744846 -20.41819617 493.46778472 -20.28145885 487.26201439 C-20.27243542 486.47826439 -20.26341198 485.69451439 -20.2541151 484.88701439 C-20.23073949 482.97021384 -20.19487539 481.05357248 -20.15645885 479.13701439 C-21.00208385 479.18342064 -21.84770885 479.22982689 -22.71895885 479.27763939 C-31.74335144 479.56477915 -36.9515829 478.57736744 -43.90645885 472.88701439 C-49.27119677 466.3301125 -50.90559321 460.95767402 -50.5978651 452.39092064 C-49.64523894 445.36846407 -46.80087836 440.09335504 -41.28145885 435.63701439 C-34.17040829 430.94053696 -28.89990249 431.13701439 -20.15645885 431.13701439 C-20.15645885 420.90701439 -20.15645885 410.67701439 -20.15645885 400.13701439 C-23.12645885 400.13701439 -26.09645885 400.13701439 -29.15645885 400.13701439 C-36.10084019 398.85449351 -42.46219741 395.78620394 -46.6994276 390.04717064 C-50.60295306 383.30074149 -51.214792 376.80013033 -50.15645885 369.13701439 C-48.10635263 362.35421613 -43.73821972 357.46452078 -37.65645885 353.88701439 C-33.15645885 352.13701439 -33.15645885 352.13701439 -20.15645885 351.13701439 C-20.15645885 340.90701439 -20.15645885 330.67701439 -20.15645885 320.13701439 C-24.11645885 320.13701439 -28.07645885 320.13701439 -32.15645885 320.13701439 C-39.98754148 317.13206408 -45.5204842 313.47259067 -49.28927135 305.84404564 C-51.35886726 299.38355032 -51.43384855 290.9670752 -48.65645885 284.69951439 C-45.47872513 279.45963431 -40.79798194 275.51781055 -35.40645885 272.69951439 C-30.39418761 271.8320059 -25.243249 272.13701439 -20.15645885 272.13701439 C-20.15645885 261.57701439 -20.15645885 251.01701439 -20.15645885 240.13701439 C-24.11645885 240.13701439 -28.07645885 240.13701439 -32.15645885 240.13701439 C-39.40657667 238.08281434 -45.06822699 233.33461944 -49.15645885 227.07451439 C-51.50377165 220.29338853 -51.52958938 211.20422234 -48.59395885 204.63701439 C-44.82763134 198.44379273 -39.06880076 194.17672184 -32.15645885 192.13701439 C-28.19645885 192.13701439 -24.23645885 192.13701439 -20.15645885 192.13701439 C-20.15645885 181.90701439 -20.15645885 171.67701439 -20.15645885 161.13701439 C-24.44645885 160.80701439 -28.73645885 160.47701439 -33.15645885 160.13701439 C-40.6333498 157.22933458 -46.00648713 152.98582591 -49.42208385 145.56670189 C-51.52939876 138.59462811 -51.10935094 131.33601423 -48.15645885 124.69951439 C-44.69146735 118.69678263 -39.90528956 114.70664443 -33.21895885 112.76201439 C-29.15645885 112.13701439 -29.15645885 112.13701439 -20.15645885 112.13701439 C-20.15645885 101.90701439 -20.15645885 91.67701439 -20.15645885 81.13701439 C-23.45645885 81.13701439 -26.75645885 81.13701439 -30.15645885 81.13701439 C-37.23744394 79.36676812 -42.35254008 77.10552376 -46.63302135 71.04717064 C-50.56696726 64.26715773 -51.22218727 57.85367756 -50.15645885 50.13701439 C-48.10195901 43.3396798 -43.70455899 38.471163 -37.65645885 34.82451439 C-32.12547387 32.1760235 -26.13862175 32.80872496 -20.15645885 33.13701439 C-20.19126354 32.00263939 -20.22606823 30.86826439 -20.2619276 29.69951439 C-20.65779422 11.84988876 -20.65779422 11.84988876 -15.28145885 6.14873314 C-10.2109765 1.49768407 -6.94632456 0.01439606 0 0 Z M-2.96277517 17.1725722 C-4.83829211 20.25910564 -4.56363067 23.43236983 -4.52839565 26.93723297 C-4.53215678 27.74406078 -4.53591791 28.55088859 -4.53979301 29.38216573 C-4.54879715 32.10890475 -4.53625196 34.83512931 -4.52395153 37.56184959 C-4.52597425 39.52713277 -4.52931169 41.49241497 -4.53385711 43.45769393 C-4.54253901 48.87619609 -4.53240837 54.29452796 -4.51931477 59.71301532 C-4.50845101 65.54944084 -4.51482422 71.38585001 -4.51909924 77.2222805 C-4.52474331 88.66240466 -4.51439779 100.10246201 -4.49881127 111.54257478 C-4.48219411 124.17881146 -4.47991629 136.81503828 -4.47929583 149.45128356 C-4.47808385 173.86005124 -4.46237448 198.26878736 -4.43770885 222.67754173 C-4.41441094 245.73744005 -4.40024176 268.79731923 -4.39669323 291.85722923 C-4.39658171 292.56772221 -4.3964702 293.27821518 -4.3963553 294.01023824 C-4.39590646 296.87458427 -4.39546449 299.73893031 -4.39502288 302.60327634 C-4.3948025 304.03060775 -4.39458121 305.45793915 -4.394359 306.88527056 C-4.39413764 308.30902969 -4.39391887 309.73278882 -4.3937027 311.15654795 C-4.39019091 333.80577739 -4.37871816 356.45500318 -4.36589636 379.10422901 C-4.36145413 387.07016515 -4.35801875 395.036101 -4.35527423 403.0020379 C-4.35085024 415.63432265 -4.34310687 428.2665958 -4.32849982 440.89887322 C-4.32187289 446.6750801 -4.31682371 452.45127668 -4.31603909 458.22748756 C-4.31525648 463.50607126 -4.30989257 468.7846289 -4.30071959 474.06320451 C-4.29819581 475.9816918 -4.29738459 477.90018219 -4.29837838 479.81867088 C-4.29946167 482.4086378 -4.2944995 484.99852116 -4.28788662 487.58847809 C-4.28965609 488.34866196 -4.29142556 489.10884584 -4.29324865 489.89206558 C-4.58307454 493.30241314 -4.58307454 493.30241314 -3.15645885 496.13701439 C-1.47272032 496.2342604 0.21513375 496.26072963 1.90167809 496.26006222 C3.55579416 496.26304879 3.55579416 496.26304879 5.24332672 496.2660957 C6.46995354 496.26318286 7.69658036 496.26027002 8.96037769 496.25726891 C10.89726315 496.25855054 10.89726315 496.25855054 12.8732776 496.25985807 C16.47392665 496.26210547 20.07454623 496.25807843 23.67519152 496.25308001 C27.55182913 496.24877918 31.42846494 496.25022167 35.30510426 496.25098228 C42.02713448 496.25150775 48.74915503 496.24835856 55.47118282 496.24274445 C65.19021978 496.23463254 74.90925204 496.23201454 84.62829202 496.23075645 C100.39511274 496.22856545 116.1619283 496.22190404 131.92874622 496.21245384 C147.24873294 496.20328099 162.56871826 496.19619954 177.88870716 496.19194603 C179.30414898 496.19155194 179.30414898 496.19155194 180.74818558 496.1911499 C185.48188146 496.1898449 190.21557734 496.18858118 194.94927323 496.18733799 C234.24736712 496.17696386 273.54545146 496.15852474 312.84354115 496.13701439 C312.84354115 475.34701439 312.84354115 454.55701439 312.84354115 433.13701439 C311.52354115 434.12701439 310.20354115 435.11701439 308.84354115 436.13701439 C306.4845171 436.51796532 306.4845171 436.51796532 303.84720325 436.52519798 C302.85615086 436.53465446 301.86509846 436.54411095 300.84401417 436.55385399 C299.78038151 436.5477813 298.71674885 436.5417086 297.6208849 436.53545189 C296.52385746 436.53832207 295.42683002 436.54119225 294.29655933 436.5441494 C291.97912549 436.54618975 289.66167441 436.54066198 287.34427357 436.52812767 C283.79090504 436.51205899 280.23867137 436.52798603 276.68533802 436.54717064 C274.43468446 436.5451885 272.18403161 436.54134545 269.9333849 436.53545189 C268.867728 436.54152458 267.80207111 436.54759727 266.70412159 436.55385399 C265.71622135 436.54439751 264.72832111 436.53494102 263.7104845 436.52519798 C262.84096653 436.5228112 261.97144855 436.52042442 261.07558155 436.51796532 C258.35368658 436.05340902 257.46769428 435.34033217 255.84354115 433.13701439 C255.33776913 429.74111657 255.36276284 427.90610356 257.19681263 424.97221947 C261.40460535 422.05459398 265.63182535 422.62545321 270.6286974 422.71123314 C271.68133274 422.71452126 272.73396809 422.71780937 273.81850147 422.72119713 C276.04183612 422.73161394 278.26514361 422.75155692 280.48831654 422.78032494 C283.89658974 422.82439219 287.30415896 422.84176006 290.71268177 422.85381126 C292.87219717 422.86723572 295.03170388 422.88215879 297.1911974 422.89873314 C298.21310673 422.90612007 299.23501606 422.913507 300.28789234 422.92111778 C301.23575108 422.93395302 302.18360981 422.94678825 303.16019154 422.96001244 C303.99417973 422.96985664 304.82816792 422.97970085 305.68742847 422.98984337 C307.84354115 423.13701439 307.84354115 423.13701439 310.84354115 424.13701439 C310.84354115 424.79701439 310.84354115 425.45701439 310.84354115 426.13701439 C311.50354115 426.13701439 312.16354115 426.13701439 312.84354115 426.13701439 C312.84354115 390.16701439 312.84354115 354.19701439 312.84354115 317.13701439 C311.52354115 318.12701439 310.20354115 319.11701439 308.84354115 320.13701439 C306.69589561 320.51306188 306.69589561 320.51306188 304.33044815 320.51453781 C303.42561799 320.52236105 302.52078784 320.5301843 301.58853859 320.53824461 C300.59837165 320.53155244 299.60820472 320.52486027 298.58803272 320.51796532 C297.53317521 320.52264529 296.4783177 320.52732526 295.39149481 320.53214705 C291.84535429 320.54414414 288.29959686 320.53462121 284.75345325 320.52519798 C282.2158889 320.52926155 279.67832631 320.53460222 277.1407671 320.54112816 C270.95728736 320.55340812 264.77395026 320.5515826 258.59046858 320.54289024 C253.56626659 320.53611942 248.54209522 320.53519435 243.51788998 320.53846169 C242.8032549 320.53892138 242.08861983 320.53938108 241.35232915 320.53985471 C239.90064647 320.54081387 238.4489638 320.54178651 236.99728114 320.54277249 C223.38090002 320.55132974 209.76457946 320.54148669 196.14820827 320.52537139 C184.45865023 320.51196502 172.76918156 320.51429826 161.07962513 320.52812767 C147.51094435 320.54417263 133.94231666 320.55050876 120.37362772 320.54129088 C118.92754401 320.54033521 117.48146028 320.5393921 116.03537655 320.53846169 C115.32383819 320.53799886 114.61229983 320.53753603 113.87919969 320.53705918 C108.85912631 320.53446625 103.83908654 320.53884674 98.81901836 320.54590034 C92.06636554 320.55517967 85.31390805 320.54859851 78.56126308 320.53121758 C76.07757187 320.52723815 73.5938665 320.52841147 71.11018085 320.53500557 C67.73061429 320.5431535 64.3515971 320.53298112 60.97206593 320.51796532 C59.97966827 320.52465748 58.98727061 320.53134965 57.9648003 320.53824461 C57.06257789 320.53042136 56.16035548 320.52259812 55.230793 320.51453781 C54.45035769 320.51405075 53.66992238 320.5135637 52.86583751 320.51306188 C50.27611511 320.0315011 49.39769225 319.2393538 47.84354115 317.13701439 C47.40604115 313.63701439 47.40604115 313.63701439 47.84354115 310.13701439 C50.59049263 307.47138166 52.54335602 306.76216197 56.3253994 306.76507759 C57.67219445 306.75519282 57.67219445 306.75519282 59.04619747 306.74510837 C60.02858251 306.75316477 61.01096755 306.76122118 62.02312183 306.76952171 C63.06981224 306.76625287 64.11650265 306.76298403 65.19491094 306.75961614 C68.71343172 306.75231463 72.23153973 306.76651278 75.75003529 306.78056908 C78.26789388 306.7797785 80.78575235 306.77768218 83.30360889 306.77437401 C89.43897362 306.76976533 95.57418421 306.77905938 101.70952661 306.79466197 C108.85128471 306.81218993 115.9930185 306.81362098 123.13479476 306.81427756 C135.8750582 306.81596595 148.6152647 306.83178533 161.35550404 306.85576439 C173.72432395 306.87902755 186.09310774 306.89318976 198.46194935 306.89678001 C199.22387311 306.89700278 199.98579688 306.89722555 200.77080924 306.89745507 C202.30567186 306.89789766 203.84053449 306.89833968 205.37539711 306.89878114 C206.13249398 306.8990007 206.88959085 306.89922027 207.66963005 306.89944649 C208.80236775 306.89977047 208.80236775 306.89977047 209.95798904 306.90010099 C221.73716159 306.90380033 233.51632829 306.91515971 245.29549443 306.92757688 C249.56794521 306.93201433 253.84039545 306.9354517 258.11284763 306.93819901 C265.52145618 306.9430421 272.93002752 306.95314424 280.33862209 306.96902657 C282.80296291 306.97355819 285.2673075 306.97639026 287.73165226 306.97743416 C291.0847779 306.97917366 294.43783289 306.98704019 297.7909441 306.99657249 C298.77555986 306.99570601 299.76017562 306.99483953 300.77462822 306.99394679 C302.11751165 306.99970851 302.11751165 306.99970851 303.48752403 307.00558662 C304.26188382 307.00683312 305.0362436 307.00807962 305.83406883 307.00936389 C307.84354115 307.13701439 307.84354115 307.13701439 310.84354115 308.13701439 C310.84354115 308.79701439 310.84354115 309.45701439 310.84354115 310.13701439 C311.50354115 310.13701439 312.16354115 310.13701439 312.84354115 310.13701439 C312.84354115 289.01701439 312.84354115 267.89701439 312.84354115 246.13701439 C309.37854115 248.11701439 309.37854115 248.11701439 305.84354115 250.13701439 C303.36407363 250.63841105 303.36407363 250.63841105 301.06059551 250.64037895 C299.72759122 250.65602544 299.72759122 250.65602544 298.36765754 250.67198801 C297.41093906 250.66306512 296.45422058 250.65414224 295.46851063 250.64494896 C294.43700229 250.65118892 293.40549395 250.65742888 292.34272778 250.66385794 C288.89338348 250.67978675 285.44474591 250.66718365 281.99539661 250.65459251 C279.51974545 250.66001358 277.04409752 250.66713616 274.5684557 250.67583275 C268.54709558 250.69217569 262.5260119 250.68978832 256.50466262 250.67818218 C251.61116755 250.66914108 246.71772836 250.66792677 241.82422733 250.67227745 C241.12722834 250.67289038 240.43022936 250.67350331 239.71210919 250.67413482 C238.29610456 250.67541374 236.88009996 250.67671059 235.46409537 250.67802519 C222.19479907 250.68942408 208.92561341 250.67632728 195.65633525 250.65482372 C184.27157901 250.63694546 172.88698587 250.64006411 161.50223255 250.65849876 C148.27665971 250.67990416 135.05118371 250.68833379 121.82559597 250.67604971 C120.41547181 250.67477552 119.00534762 250.67351804 117.59522343 250.67227745 C116.90143611 250.67166035 116.2076488 250.67104325 115.49283763 250.67040744 C110.60440381 250.66695413 105.71603145 250.67278231 100.82760715 250.68219566 C94.24970994 250.69458418 87.67207349 250.68576651 81.09418964 250.66261864 C78.67745318 250.65732078 76.26069081 250.65886361 73.84396458 250.6676693 C70.55049138 250.67856505 67.25801377 250.66493241 63.96460438 250.64494896 C63.00342445 250.65387185 62.04224453 250.66279473 61.05193794 250.67198801 C56.78369919 250.62159269 54.46838795 250.52509201 50.77347469 248.23026848 C46.47016839 243.56279507 47.54295068 237.87536263 47.46854115 231.82451439 C47.41246693 230.11231712 47.41246693 230.11231712 47.3552599 228.36553001 C47.26745146 220.01885 47.26745146 220.01885 49.9411974 215.92607689 C53.28938874 213.86218505 55.75749621 213.25768605 59.65604115 212.82451439 C61.39820911 212.61375267 61.39820911 212.61375267 63.1755724 212.39873314 C64.05600208 212.31236595 64.93643177 212.22599876 65.84354115 212.13701439 C65.99049427 210.90209251 66.1374474 209.66717064 66.28885365 208.39482689 C69.43970191 183.84507816 78.00136346 163.2022558 93.84354115 144.13701439 C94.3643224 143.46412376 94.88510365 142.79123314 95.42166615 142.09795189 C110.41135625 123.23161779 134.41433963 113.34664199 156.84354115 107.13701439 C156.82259388 106.50198997 156.80164661 105.86696556 156.78006458 105.21269798 C156.69649534 102.31263363 156.64475341 99.41282323 156.59354115 96.51201439 C156.56002552 95.51299095 156.5265099 94.51396751 156.49197865 93.48467064 C156.41318893 87.53604688 156.60502104 83.7071194 160.84354115 79.13701439 C164.60299492 76.43858267 167.20480257 75.7537762 171.8083849 75.73857689 C173.50317982 75.73277611 173.50317982 75.73277611 175.23221302 75.72685814 C176.4033263 75.7384597 177.57443958 75.75006126 178.78104115 75.76201439 C179.94828724 75.75041283 181.11553333 75.73881126 182.31815052 75.72685814 C193.04498253 75.76353107 193.04498253 75.76353107 197.84354115 79.13701439 C201.48952941 83.17716355 202.97366957 85.53569619 202.9411974 90.92607689 C202.93797474 91.86709251 202.93475208 92.80810814 202.93143177 93.77763939 C202.92305286 94.76248314 202.91467396 95.74732689 202.90604115 96.76201439 C202.90152943 97.75459251 202.89701771 98.74717064 202.89236927 99.76982689 C202.88056259 102.22561599 202.86409515 104.68128543 202.84354115 107.13701439 C203.81291615 107.41674095 204.78229115 107.69646751 205.78104115 107.98467064 C237.50759735 117.3707765 263.26814505 135.23056103 279.54422474 164.57353783 C283.45824359 171.8677717 286.706619 179.10999719 288.84354115 187.13701439 C289.12842396 188.19404564 289.41330677 189.25107689 289.7068224 190.34013939 C291.51818701 197.58559785 292.4540865 204.68365818 292.84354115 212.13701439 C293.56799427 212.16279564 294.2924474 212.18857689 295.03885365 212.21513939 C303.03789603 212.68441654 307.10155358 214.39502682 312.84354115 220.13701439 C312.84354115 152.81701439 312.84354115 85.49701439 312.84354115 16.13701439 C257.10819638 16.04964249 257.10819638 16.04964249 201.37283802 15.99053001 C193.86624603 15.98465609 186.35965422 15.97859455 178.85306263 15.97221947 C177.91218829 15.97142822 176.97131395 15.97063697 176.00192827 15.96982175 C160.7973013 15.95676141 145.59270825 15.93310315 130.38810142 15.905556 C114.79278791 15.87753591 99.1974922 15.86084533 83.60215455 15.8547489 C73.97316864 15.8506254 64.34427854 15.83758546 54.71532211 15.81326499 C48.11911429 15.79744968 41.52295625 15.79260445 34.92673083 15.79651026 C31.11676707 15.79843839 27.30697112 15.79541077 23.49703693 15.77939796 C19.37289987 15.76219048 15.24912355 15.76802281 11.12495899 15.77625084 C9.91193975 15.76751231 8.69892051 15.75877379 7.44914311 15.74977046 C6.34938376 15.75574361 5.2496244 15.76171675 4.116539 15.7678709 C2.68746154 15.76616216 2.68746154 15.76616216 1.22951382 15.7644189 C-1.15015051 15.99037728 -1.15015051 15.99037728 -2.96277517 17.1725722 Z " fill="#D08030" transform="translate(92.1564588546753,-0.13701438903808594)"/>
<path d="M0 0 C1.29686271 -0.00507454 2.59372542 -0.01014909 3.929887 -0.0153774 C5.37760139 -0.0159791 6.82531582 -0.01647817 8.27303028 -0.01688576 C9.80434478 -0.02089991 11.33565821 -0.02533806 12.86697036 -0.03016531 C17.0861321 -0.04214181 21.3052824 -0.04778175 25.52445781 -0.05234647 C30.07062048 -0.05829845 34.61676943 -0.06990926 39.16292286 -0.08063698 C50.14734024 -0.10516963 61.13176216 -0.11978908 72.11619851 -0.13269705 C75.21783451 -0.13640824 78.31947007 -0.14038153 81.42110562 -0.14444971 C100.6753223 -0.16968466 119.92953966 -0.19174121 139.18376923 -0.20417786 C143.64449726 -0.20710763 148.10522527 -0.21006928 152.56595325 -0.21308327 C153.67466696 -0.21382932 154.78338067 -0.21457537 155.92569176 -0.21534403 C173.89062192 -0.22800064 191.85545317 -0.26122739 209.82033708 -0.3028851 C228.25775368 -0.34528866 246.69511963 -0.36887104 265.13258487 -0.37409842 C275.48729515 -0.37751425 285.84185085 -0.38928972 296.19651318 -0.42220116 C305.01413457 -0.45018107 313.8315697 -0.46121002 322.64923205 -0.4500057 C327.14850989 -0.44481384 331.64739752 -0.44773989 336.14661884 -0.47247124 C340.26679589 -0.4949301 344.38630167 -0.49425041 348.50649021 -0.47526737 C349.99577505 -0.47246261 351.48510509 -0.47809243 352.97431716 -0.4930803 C367.73524961 -0.63253709 367.73524961 -0.63253709 373.84354115 5.13701439 C378.25043843 10.7868827 378.99126262 15.06926726 378.97776222 22.04261875 C378.98011445 22.86085638 378.98246668 23.679094 378.98489019 24.5221267 C378.99159279 27.28758315 378.99112159 30.05299275 378.99071217 32.81845665 C378.99401 34.81174838 378.9977354 36.80503945 379.00185364 38.79832965 C379.01189082 44.29446942 379.01559319 49.79059827 379.01824296 55.28674591 C379.0221409 61.20715162 379.03171956 67.12754865 379.04045582 73.04794884 C379.05929922 86.67825315 379.06947826 100.30855898 379.0779165 113.93887291 C379.08212192 120.67317349 379.08734405 127.40747318 379.09260103 134.141773 C379.11049176 157.18991409 379.12548823 180.23805543 379.13292122 203.28620243 C379.13339598 204.7333802 379.13387187 206.18055796 379.13434888 207.62773572 C379.13458526 208.34541209 379.13482163 209.06308846 379.13506517 209.8025126 C379.13626638 213.43867141 379.13748183 217.0748302 379.13870716 220.710989 C379.13894731 221.43259813 379.13918746 222.15420726 379.13943489 222.89768334 C379.1473287 246.29661599 379.17076193 269.69549796 379.2032631 293.09440848 C379.23755512 317.82772986 379.25727177 342.56102159 379.26056546 367.29436713 C379.26098301 370.00915167 379.26146257 372.72393619 379.26198864 375.4387207 C379.26211183 376.10718665 379.26223502 376.7756526 379.26236195 377.46437509 C379.26455026 387.5589551 379.27785357 397.65348213 379.29702663 407.74804306 C379.31869637 419.22996082 379.3268024 430.71178602 379.31705985 442.19372191 C379.31250441 448.05390231 379.31447369 453.91389157 379.3338213 459.77404594 C379.35137672 465.13759675 379.35051725 470.50081589 379.334924 475.86436985 C379.33253633 477.80586724 379.33693117 479.74738714 379.34875266 481.68885001 C379.36382287 484.32703875 379.35423311 486.96404493 379.33852577 489.60220432 C379.34874798 490.35683386 379.35897019 491.11146341 379.36950216 491.88896051 C379.2983488 497.36074989 377.84912604 501.548778 374.84354115 506.13701439 C369.98167924 510.7557832 366.23643758 512.38634606 359.55844784 512.39148998 C358.25836068 512.39732218 356.95827353 512.40315437 355.61878979 512.4091633 C354.17263913 512.40552995 352.72648895 512.40170557 351.28033924 512.3977108 C349.74673554 512.40073027 348.21313335 512.40461872 346.67953384 512.40930337 C342.45874363 512.4196186 338.23803803 512.41739261 334.01724076 512.41312277 C329.46772381 512.41066191 324.91822758 512.41966175 320.36871815 512.42716026 C311.45306748 512.43992732 302.5374469 512.44169844 293.62178864 512.43936 C286.37650793 512.43757886 279.13123638 512.4393221 271.88595676 512.44358444 C270.85579668 512.44417963 269.8256366 512.44477482 268.76425954 512.44538805 C266.67165606 512.44659976 264.57905258 512.4478139 262.48644911 512.44903042 C242.8496979 512.45991377 223.21296385 512.45773976 203.57621168 512.45164558 C185.60355418 512.44647616 167.63095088 512.45773111 149.65830411 512.47674379 C131.21408096 512.4961061 112.76988348 512.50438099 94.3256501 512.50062054 C83.96659651 512.498706 73.60758905 512.50122065 63.24854374 512.51533508 C54.42944941 512.52722942 45.6104296 512.52867573 36.79133429 512.51654492 C32.29037247 512.51064241 27.7895471 512.50959454 23.28859425 512.52154732 C19.1693108 512.53235953 15.05027848 512.52935865 10.93100701 512.51528563 C9.43977815 512.51262578 7.9485299 512.51504544 6.45731999 512.5230215 C4.43167385 512.53310515 2.4059571 512.52292801 0.38031673 512.5117445 C-0.74528436 512.51179951 -1.87088545 512.51185453 -3.03059566 512.51191121 C-8.15925105 511.8968118 -12.10110401 509.77459504 -15.40645885 505.82451439 C-15.8859901 505.27150658 -16.36552135 504.71849876 -16.85958385 504.14873314 C-20.34802369 498.73744846 -20.41819617 493.46778472 -20.28145885 487.26201439 C-20.27243542 486.47826439 -20.26341198 485.69451439 -20.2541151 484.88701439 C-20.23073949 482.97021384 -20.19487539 481.05357248 -20.15645885 479.13701439 C-21.00208385 479.18342064 -21.84770885 479.22982689 -22.71895885 479.27763939 C-31.74335144 479.56477915 -36.9515829 478.57736744 -43.90645885 472.88701439 C-49.27119677 466.3301125 -50.90559321 460.95767402 -50.5978651 452.39092064 C-49.64523894 445.36846407 -46.80087836 440.09335504 -41.28145885 435.63701439 C-34.17040829 430.94053696 -28.89990249 431.13701439 -20.15645885 431.13701439 C-20.15645885 420.90701439 -20.15645885 410.67701439 -20.15645885 400.13701439 C-23.12645885 400.13701439 -26.09645885 400.13701439 -29.15645885 400.13701439 C-36.10084019 398.85449351 -42.46219741 395.78620394 -46.6994276 390.04717064 C-50.60295306 383.30074149 -51.214792 376.80013033 -50.15645885 369.13701439 C-48.10635263 362.35421613 -43.73821972 357.46452078 -37.65645885 353.88701439 C-33.15645885 352.13701439 -33.15645885 352.13701439 -20.15645885 351.13701439 C-20.15645885 340.90701439 -20.15645885 330.67701439 -20.15645885 320.13701439 C-24.11645885 320.13701439 -28.07645885 320.13701439 -32.15645885 320.13701439 C-39.98754148 317.13206408 -45.5204842 313.47259067 -49.28927135 305.84404564 C-51.35886726 299.38355032 -51.43384855 290.9670752 -48.65645885 284.69951439 C-45.47872513 279.45963431 -40.79798194 275.51781055 -35.40645885 272.69951439 C-30.39418761 271.8320059 -25.243249 272.13701439 -20.15645885 272.13701439 C-20.15645885 261.57701439 -20.15645885 251.01701439 -20.15645885 240.13701439 C-24.11645885 240.13701439 -28.07645885 240.13701439 -32.15645885 240.13701439 C-39.40657667 238.08281434 -45.06822699 233.33461944 -49.15645885 227.07451439 C-51.50377165 220.29338853 -51.52958938 211.20422234 -48.59395885 204.63701439 C-44.82763134 198.44379273 -39.06880076 194.17672184 -32.15645885 192.13701439 C-28.19645885 192.13701439 -24.23645885 192.13701439 -20.15645885 192.13701439 C-20.15645885 181.90701439 -20.15645885 171.67701439 -20.15645885 161.13701439 C-24.44645885 160.80701439 -28.73645885 160.47701439 -33.15645885 160.13701439 C-40.6333498 157.22933458 -46.00648713 152.98582591 -49.42208385 145.56670189 C-51.52939876 138.59462811 -51.10935094 131.33601423 -48.15645885 124.69951439 C-44.69146735 118.69678263 -39.90528956 114.70664443 -33.21895885 112.76201439 C-29.15645885 112.13701439 -29.15645885 112.13701439 -20.15645885 112.13701439 C-20.15645885 101.90701439 -20.15645885 91.67701439 -20.15645885 81.13701439 C-23.45645885 81.13701439 -26.75645885 81.13701439 -30.15645885 81.13701439 C-37.23744394 79.36676812 -42.35254008 77.10552376 -46.63302135 71.04717064 C-50.56696726 64.26715773 -51.22218727 57.85367756 -50.15645885 50.13701439 C-48.10195901 43.3396798 -43.70455899 38.471163 -37.65645885 34.82451439 C-32.12547387 32.1760235 -26.13862175 32.80872496 -20.15645885 33.13701439 C-20.19126354 32.00263939 -20.22606823 30.86826439 -20.2619276 29.69951439 C-20.65779422 11.84988876 -20.65779422 11.84988876 -15.28145885 6.14873314 C-10.2109765 1.49768407 -6.94632456 0.01439606 0 0 Z M-4.15645885 17.13701439 C-4.3535919 19.74060772 -4.42416706 22.23782443 -4.40814114 24.84262657 C-4.41104802 25.65137769 -4.4139549 26.46012881 -4.41694987 27.29338753 C-4.42431113 30.03259657 -4.41727821 32.77158588 -4.41042614 35.51079369 C-4.41272816 37.48275016 -4.41590293 39.45470578 -4.41988063 41.42665958 C-4.42827291 46.86825503 -4.42408336 52.30978084 -4.41790819 57.75137663 C-4.41340273 63.61101676 -4.42035794 69.4706445 -4.42586803 75.33028221 C-4.43478415 86.81831979 -4.43283018 98.30633131 -4.42704275 109.79436994 C-4.42246433 119.12687856 -4.42185648 128.45938121 -4.42409039 137.7918911 C-4.42424316 138.45413713 -4.42439593 139.11638316 -4.42455333 139.79869726 C-4.42517597 142.48673296 -4.42581276 145.17476867 -4.42647285 147.86280436 C-4.43259568 173.09667935 -4.42703629 198.33054009 -4.41627906 223.56441288 C-4.40678732 246.00040487 -4.40763655 268.43637416 -4.41720104 290.87236595 C-4.42790218 316.05905601 -4.43216151 341.24573348 -4.42597651 366.4324255 C-4.42533505 369.11566289 -4.42470937 371.79890028 -4.42409039 374.48213768 C-4.42393223 375.14285576 -4.42377408 375.80357385 -4.42361113 376.48431369 C-4.42133282 386.47722463 -4.42401528 396.47012463 -4.42904949 406.46303368 C-4.43464556 417.82143214 -4.43316883 429.17980295 -4.422488 440.53819823 C-4.41721406 446.33883866 -4.4152037 452.13943288 -4.42178631 457.94007301 C-4.42771243 463.24220877 -4.42452633 468.54425518 -4.4138312 473.84638274 C-4.41158291 475.77232068 -4.4127651 477.69826605 -4.41758278 479.62419927 C-4.42359735 482.22671011 -4.41749524 484.82890818 -4.40814114 487.43140221 C-4.41282347 488.1924536 -4.4175058 488.953505 -4.42233002 489.73761857 C-4.52707304 493.89286039 -4.52707304 493.89286039 -2.15645885 497.13701439 C0.53832551 497.44267002 0.53832551 497.44267002 3.7503624 497.39148998 C5.01696699 497.39732218 6.28357159 497.40315437 7.58855814 497.4091633 C9.0072881 497.40552953 10.42601759 497.40170512 11.84474659 497.3977108 C13.3416391 497.40072861 14.83853007 497.40461622 16.33541828 497.40930337 C20.46390537 497.41963994 24.59230617 497.41738725 28.72080052 497.41312277 C33.16736339 497.41066575 37.61390492 497.4196569 42.06046009 497.42716026 C50.77752316 497.43993791 59.49455548 497.44169715 68.21162634 497.43936 C75.29393724 497.43758011 82.37623877 497.4393194 89.45854855 497.44358444 C90.46486753 497.44417963 91.47118651 497.44477482 92.50800001 497.44538805 C94.55205075 497.44659974 96.59610149 497.44781388 98.64015222 497.44903042 C117.8280475 497.45991776 137.01592522 497.45773782 156.20382149 497.45164558 C173.77447541 497.44647527 191.34507392 497.45773275 208.91571688 497.47674379 C226.93836772 497.49609508 244.9609923 497.50438297 262.9836536 497.50062054 C273.10957478 497.49870438 283.23544877 497.50123628 293.3613615 497.51533508 C301.98149862 497.52721539 310.60155952 497.5286916 319.22169762 497.51654492 C323.62303688 497.51063258 328.0242365 497.50962134 332.42556667 497.52154732 C336.45040366 497.53232675 340.47498308 497.52939851 344.4998076 497.51528563 C345.96008748 497.51261662 347.42038703 497.51507357 348.88064771 497.5230215 C350.85736959 497.53303822 352.83416336 497.52296822 354.81087875 497.5117445 C355.91136329 497.51179951 357.01184782 497.51185453 358.14568037 497.51191121 C360.79784431 497.30983872 360.79784431 497.30983872 362.69698733 496.10075825 C364.50558887 493.00310149 364.25350416 489.82919364 364.22106457 486.34238243 C364.22542489 485.53615381 364.22978521 484.7299252 364.23427767 483.89926541 C364.24530051 481.17455542 364.2347794 478.45034445 364.22449207 475.72563744 C364.22794586 473.76177872 364.23270854 471.79792194 364.23867381 469.83406925 C364.25125178 464.41943771 364.24498265 459.00496383 364.23571515 453.59033155 C364.22895271 447.75795046 364.23939191 441.92559729 364.24765491 436.09322166 C364.26102452 424.66045472 364.25810017 413.22774672 364.24941699 401.79497743 C364.24265352 392.50683434 364.24171792 383.21870782 364.24498844 373.93056297 C364.24544814 372.61076366 364.24590784 371.29096435 364.24638147 369.93117112 C364.24709526 367.92242382 364.24781889 365.91367652 364.24856214 363.90492923 C364.25774497 338.78791156 364.24940953 313.6709261 364.23327145 288.5539134 C364.21903399 266.22515116 364.22030784 243.89644024 364.23465443 221.56767845 C364.25070851 196.49742946 364.2570938 171.42720894 364.24781764 146.35695553 C364.24685544 143.68579229 364.24591883 141.01462905 364.24498844 138.34346581 C364.2442942 136.37185172 364.2442942 136.37185172 364.24358594 134.36040705 C364.24099104 125.07885373 364.24537777 115.79731856 364.2524271 106.51576805 C364.26082382 95.21120823 364.25860058 83.90671093 364.24258487 72.60215831 C364.23467747 66.82972123 364.23165242 61.05738856 364.24153233 55.28495216 C364.25042881 50.00743536 364.24563025 44.73012038 364.22959967 39.45262206 C364.22623035 37.5367915 364.22799372 35.62094412 364.23522703 33.70512426 C364.24426547 31.11371776 364.23507946 28.5230152 364.22106457 25.93164635 C364.22808807 25.1767165 364.23511156 24.42178665 364.2423479 23.64398015 C364.21147642 20.81486645 364.14214252 18.64843967 362.69698733 16.17327052 C360.00884654 14.67033917 357.8850043 14.7621306 354.81087875 14.76228428 C353.54166641 14.75507774 352.27245407 14.74787119 350.96478075 14.74044627 C349.54830312 14.74762404 348.13182689 14.75508298 346.71535206 14.76279259 C345.21688287 14.76005377 343.7184156 14.75600323 342.21995312 14.75074893 C338.09174622 14.74012715 333.96375473 14.74831354 329.8355571 14.75949943 C325.38766752 14.76831766 320.93980686 14.75990486 316.49191761 14.75363731 C307.77463684 14.74413359 299.05743866 14.75076277 290.340164 14.76290026 C280.19733078 14.77649839 270.05451739 14.77488435 259.91167737 14.77276693 C241.82001926 14.76957478 223.72840048 14.78125799 205.63675404 14.80083275 C188.06447623 14.81984068 170.49224452 14.82691984 152.91995716 14.82134056 C133.80285406 14.81528878 114.68577126 14.81544857 95.56866986 14.82682639 C93.53196275 14.82803374 91.49525565 14.82923972 89.45854855 14.83044434 C88.45634291 14.83104787 87.45413727 14.83165141 86.42156176 14.83227324 C79.34418067 14.83615956 72.26680711 14.83575602 65.18942547 14.83385849 C56.57038971 14.83174085 47.95139443 14.83692783 39.33237009 14.85147204 C34.93117935 14.85873747 30.53004767 14.86277484 26.12885189 14.85822868 C22.10538377 14.85417364 18.082038 14.85925629 14.05858851 14.87185476 C12.59768608 14.87480001 11.13677223 14.87432473 9.67587262 14.87021168 C7.70070475 14.86515272 5.72551581 14.87344403 3.7503624 14.8825388 C2.09987913 14.88383896 2.09987913 14.88383896 0.41605276 14.88516539 C-2.32099761 14.87832252 -2.32099761 14.87832252 -4.15645885 17.13701439 Z " fill="#000000" transform="translate(92.1564588546753,-0.13701438903808594)"/>
<path d="M0 0 C0.70382812 0.55171875 1.40765625 1.1034375 2.1328125 1.671875 C19.25082622 15.76906277 31.28471126 38.16979413 35 60 C35.04201162 61.7431954 35.05367781 63.48731468 35.03930664 65.23095703 C35.0307943 66.5731279 35.0307943 66.5731279 35.02210999 67.94241333 C35.01481369 68.62141693 35.0075174 69.30042053 35 70 C34.21939807 70.00238835 33.43879614 70.00477671 32.6345396 70.00723743 C13.65640954 70.06632749 -5.3215898 70.14183889 -24.29958057 70.23571491 C-33.47713385 70.28071474 -42.65464796 70.32011966 -51.83227539 70.34643555 C-59.82983251 70.36938181 -67.82726611 70.40274183 -75.82472533 70.44870156 C-80.06084551 70.47267947 -84.29684301 70.49137821 -88.53302956 70.49761391 C-92.51804894 70.50364423 -96.50275424 70.52356899 -100.48765755 70.55427551 C-101.95218987 70.56308884 -103.41676318 70.56677153 -104.88132095 70.56500816 C-106.87715944 70.56336346 -108.87298475 70.58177028 -110.86872864 70.60127258 C-112.54593097 70.60818603 -112.54593097 70.60818603 -114.25701618 70.61523914 C-116.99732234 70.78729196 -116.99732234 70.78729196 -118.85976696 72.30617046 C-120.78013242 75.15889585 -120.35535938 77.68331247 -120 81 C-118.97554352 82.82774027 -118.97554352 82.82774027 -117 84 C-113.82371095 84.46275701 -113.82371095 84.46275701 -110.10945129 84.39872742 C-109.05204987 84.40869766 -109.05204987 84.40869766 -107.97328681 84.41886932 C-105.60549922 84.43755761 -103.23821437 84.43489021 -100.87036133 84.43237305 C-99.17535179 84.44138668 -97.4803488 84.45171291 -95.78535461 84.46325684 C-91.1782241 84.49089993 -86.57121701 84.50012124 -81.96401429 84.50611091 C-77.15130842 84.5154756 -72.33869544 84.54167739 -67.52604675 84.56611633 C-58.41009504 84.60983755 -49.29416129 84.63834995 -40.17813653 84.66143972 C-29.80094389 84.68846129 -19.42384443 84.73237464 -9.04671824 84.77772844 C12.30213776 84.87065523 33.65102165 84.94229913 55 85 C55 87.97 55 90.94 55 94 C-22.88 94 -100.76 94 -181 94 C-181 91.03 -181 88.06 -181 85 C-179.43318481 84.97812622 -179.43318481 84.97812622 -177.8347168 84.95581055 C-173.95985655 84.89784449 -170.08557849 84.82061226 -166.21118164 84.73754883 C-164.53419441 84.70429137 -162.85709503 84.67626192 -161.17993164 84.65356445 C-158.76920775 84.62003263 -156.35951238 84.56772022 -153.94921875 84.51171875 C-152.82407112 84.50213387 -152.82407112 84.50213387 -151.67619324 84.49235535 C-147.62666575 84.38366824 -147.62666575 84.38366824 -144.03442383 82.68676758 C-142.22062823 79.72912921 -142.52203058 77.34578596 -143 74 C-146.90456994 70.84546045 -150.39580352 70.54225217 -155.3125 70.3125 C-156.56675781 70.24675781 -157.82101563 70.18101562 -159.11328125 70.11328125 C-160.06589844 70.07589844 -161.01851562 70.03851563 -162 70 C-158.63367305 41.00998438 -147.87052014 18.25101562 -125.37109375 -1.12890625 C-115.33733598 -9.04681395 -103.95981898 -14.9288859 -91.8125 -18.8125 C-91.17159424 -19.01955566 -90.53068848 -19.22661133 -89.87036133 -19.43994141 C-58.91928128 -28.81570561 -24.67326401 -19.90040311 0 0 Z " fill="#E1E1E1" transform="translate(335,142)"/>
<path d="M0 0 C1.16273438 -0.00708984 2.32546875 -0.01417969 3.5234375 -0.02148438 C10.24595595 0.02851147 15.50168195 0.17184919 20.64453125 4.97265625 C26.34478717 12.42683707 25.51596724 19.55830864 24.5 28.6875 C24.335 29.925 24.17 31.1625 24 32.4375 C25.68416016 32.57671875 25.68416016 32.57671875 27.40234375 32.71875 C32.44568899 33.35706397 36.87662672 35.02239604 41.5625 36.9375 C42.43511475 37.29207275 43.30772949 37.64664551 44.20678711 38.01196289 C73.07740316 50.09752135 94.03516794 72.23899027 107 100.4375 C108.61317563 104.38602873 109.89808519 108.31923253 111 112.4375 C111.29648437 113.49453125 111.59296875 114.5515625 111.8984375 115.640625 C113.80319851 123.01502082 114.36973961 129.83729682 114 137.4375 C114.72445312 137.39109375 115.44890625 137.3446875 116.1953125 137.296875 C122.32855863 137.06790048 126.27231273 137.06438928 131 141.4375 C134.74732767 146.09028244 134.45015097 150.6093767 134.375 156.3125 C134.39240234 157.62154297 134.39240234 157.62154297 134.41015625 158.95703125 C134.38500111 164.53308824 133.75989024 168.55461727 131 173.4375 C128.18708743 175.99671537 126.37468415 176.81279128 122.58899117 176.82061005 C121.70691148 176.82966669 120.82483179 176.83872333 119.91602242 176.84805441 C118.95124753 176.84272648 117.98647265 176.83739856 116.99246216 176.83190918 C115.96422266 176.83800028 114.93598316 176.84409139 113.87658489 176.85036707 C110.42037891 176.86705749 106.96453892 176.86221254 103.50830078 176.85742188 C101.03471492 176.8647587 98.56113249 176.87334379 96.08755493 176.88308716 C90.05948642 176.90303878 84.03156258 176.90868148 78.00347389 176.90689927 C73.10372285 176.90559204 68.20400183 176.90939379 63.30425644 176.91682434 C61.89329207 176.91892352 60.4823277 176.92102112 59.07136333 176.92311716 C58.36909948 176.92416069 57.66683563 176.92520422 56.94329105 176.92627937 C43.65874428 176.94518566 30.37425272 176.94413043 17.08969806 176.93731004 C4.93684931 176.93173497 -7.2157886 176.95255764 -19.36858808 176.98567051 C-31.84635879 177.01940498 -44.3240285 177.03457611 -56.80184567 177.02995348 C-63.80747776 177.02770844 -70.812915 177.03295671 -77.81850815 177.05784607 C-84.4062374 177.08105144 -90.99360088 177.07827941 -97.58136368 177.05791855 C-100.00091135 177.05449902 -102.4204883 177.05963788 -104.83999634 177.07390213 C-108.14001248 177.09201672 -111.43852509 177.07940183 -114.73849487 177.05895996 C-115.69880832 177.07147781 -116.65912176 177.08399566 -117.64853561 177.09689283 C-122.06737511 177.03810079 -125.0638701 176.85720202 -128.57884407 174.02365875 C-133.28270063 168.99923233 -132.29374447 163.73255185 -132.375 157.125 C-132.41238281 155.98353516 -132.44976562 154.84207031 -132.48828125 153.66601562 C-132.57718438 145.2152796 -132.57718438 145.2152796 -129.6171875 141.2265625 C-124.00612573 137.39094117 -119.63891557 137.17715037 -113 137.4375 C-112.98582031 136.56351563 -112.97164062 135.68953125 -112.95703125 134.7890625 C-111.9299058 108.30588206 -100.21933721 84.43363066 -82 65.4375 C-80.7934375 64.1690625 -80.7934375 64.1690625 -79.5625 62.875 C-78.716875 62.070625 -77.87125 61.26625 -77 60.4375 C-76.31808594 59.77234375 -75.63617188 59.1071875 -74.93359375 58.421875 C-68.51118014 52.36027114 -61.68292522 47.76487554 -54 43.4375 C-52.56527344 42.61765625 -52.56527344 42.61765625 -51.1015625 41.78125 C-42.75233898 37.29783134 -31.6404087 32.4375 -22 32.4375 C-22.495 30.9525 -22.495 30.9525 -23 29.4375 C-23.27574078 26.33817364 -23.27728941 23.2352687 -23.3125 20.125 C-23.35600586 18.86139648 -23.35600586 18.86139648 -23.40039062 17.57226562 C-23.4568242 12.02006965 -22.83614357 8.7444141 -19 4.4375 C-13.48354688 -0.87562231 -7.20610635 -0.12382999 0 0 Z M-40 53.4375 C-41.57974609 54.10072266 -41.57974609 54.10072266 -43.19140625 54.77734375 C-66.42070071 65.44859087 -84.10935454 86.78634419 -93 110.4375 C-95.9234292 119.21781996 -97.60779956 128.18156952 -98 137.4375 C-97.04738281 137.47488281 -96.09476563 137.51226562 -95.11328125 137.55078125 C-93.85902344 137.61652344 -92.60476562 137.68226563 -91.3125 137.75 C-90.07113281 137.80800781 -88.82976562 137.86601562 -87.55078125 137.92578125 C-83.88997717 138.45335588 -81.86530726 139.12259074 -79 141.4375 C-78.52203058 144.78328596 -78.22062823 147.16662921 -80.03442383 150.12426758 C-83.11043762 152.17940087 -86.36751986 151.91870705 -89.94921875 151.94921875 C-90.72183548 151.96716995 -91.49445221 151.98512115 -92.29048157 152.00361633 C-94.756099 152.05776104 -97.22152243 152.09162731 -99.6875 152.125 C-101.36005306 152.15816952 -103.03258051 152.19265885 -104.70507812 152.22851562 C-108.8032455 152.31348949 -112.90135494 152.3802802 -117 152.4375 C-117 155.4075 -117 158.3775 -117 161.4375 C-39.12 161.4375 38.76 161.4375 119 161.4375 C119 158.4675 119 155.4975 119 152.4375 C118.11632342 152.43511165 117.23264685 152.43272329 116.32219219 152.43026257 C94.8405132 152.3711788 73.35894702 152.29567141 51.87739086 152.20178509 C41.48915304 152.1567806 31.10094986 152.11737675 20.71264648 152.09106445 C11.66034367 152.06812198 2.60815005 152.03476619 -6.44406623 151.98879844 C-11.23909779 151.96481547 -16.03402087 151.94612002 -20.8291111 151.93988609 C-25.33941042 151.9338581 -29.84943198 151.91394163 -34.35962868 151.88322449 C-36.01767044 151.87440744 -37.67574845 151.87072922 -39.33381271 151.87249184 C-41.59268328 151.87413543 -43.85069779 151.85752521 -46.10945129 151.83622742 C-47.37507306 151.83161845 -48.64069483 151.82700949 -49.94466877 151.82226086 C-53 151.4375 -53 151.4375 -54.90722179 150.13132954 C-56.75755073 147.26328021 -56.35322309 144.73424887 -56 141.4375 C-54.85976696 139.74367046 -54.85976696 139.74367046 -53 138.4375 C-50.25701618 138.05273914 -50.25701618 138.05273914 -46.86872864 138.03877258 C-45.58565323 138.02623444 -44.30257782 138.01369629 -42.98062134 138.0007782 C-41.55584691 138.00195231 -40.1310727 138.00341148 -38.70629883 138.00512695 C-37.20833017 137.99611241 -35.71036891 137.98578595 -34.2124176 137.97424316 C-30.14245777 137.94661065 -26.07263765 137.93738022 -22.00259614 137.93138909 C-17.75042804 137.92202163 -13.49836499 137.89581962 -9.2462616 137.87138367 C-1.19279131 137.82767005 6.86065864 137.799153 14.91421157 137.77606028 C24.08224435 137.74903462 33.25017172 137.70512153 42.41812932 137.65977156 C61.27869728 137.56685568 80.13929311 137.49520679 99 137.4375 C99.01708166 135.84785679 99.02922439 134.25816004 99.03930664 132.66845703 C99.04660294 131.78320343 99.05389923 130.89794983 99.06141663 129.98587036 C98.53765867 108.25349356 83.41715336 86.42962883 69 71.4375 C58.07757508 61.17042058 45.02651682 54.34532887 31 49.4375 C29.89914062 49.02242187 28.79828125 48.60734375 27.6640625 48.1796875 C5.91684569 41.06332136 -19.36219377 44.68059555 -40 53.4375 Z " fill="#030202" transform="translate(271,74.5625)"/>
<path d="M0 0 C16.55791301 3.47925043 31.79374237 10.93517507 44.93115234 21.53125 C45.63498047 22.08296875 46.33880859 22.6346875 47.06396484 23.203125 C64.18197857 37.30031277 76.21586361 59.70104413 79.93115234 81.53125 C79.93115234 84.83125 79.93115234 88.13125 79.93115234 91.53125 C63.10115234 91.53125 46.27115234 91.53125 28.93115234 91.53125 C27.94115234 84.60125 26.95115234 77.67125 25.93115234 70.53125 C17.06852375 41.23533882 -1.32206441 18.26414663 -28.06884766 3.53125 C-29.71674864 2.81946031 -31.3760071 2.12833717 -33.06884766 1.53125 C-25.07274692 -3.79948382 -9.17618982 -1.40161372 0 0 Z " fill="#C8C8C8" transform="translate(290.06884765625,120.46875)"/>
<path d="M0 0 C1.04683927 -0.00623996 2.09367853 -0.01247993 3.1722402 -0.01890898 C6.68540297 -0.03488333 10.1978762 -0.02221685 13.71104431 -0.00964355 C16.22743129 -0.01506264 18.7438151 -0.02218409 21.26019287 -0.03088379 C27.38842874 -0.04724732 33.5164086 -0.04482829 39.6446479 -0.03323323 C44.62448823 -0.02420089 49.60427363 -0.02297402 54.5841198 -0.02732849 C55.29277993 -0.02794142 56.00144007 -0.02855436 56.73157476 -0.02918586 C58.17117618 -0.03046475 59.61077758 -0.03176161 61.05037897 -0.03307623 C74.54949779 -0.04448249 88.04850796 -0.03136719 101.54760896 -0.00987476 C113.1333918 0.00800016 124.71901436 0.00488902 136.30479431 -0.0135498 C149.75704142 -0.03494907 163.20919334 -0.04338793 176.66145509 -0.03110075 C178.09546465 -0.02982654 179.52947422 -0.02856906 180.96348381 -0.02732849 C181.66905825 -0.02671139 182.37463269 -0.02609429 183.10158818 -0.02545848 C188.07662993 -0.02200303 193.05161135 -0.02783804 198.02664375 -0.0372467 C204.72027074 -0.04962724 211.41354763 -0.04083107 218.10716057 -0.01766968 C220.56785451 -0.01236768 223.02857389 -0.01392166 225.48925781 -0.02272034 C228.84011069 -0.03359996 232.18998171 -0.02000308 235.54077148 0 C237.01230268 -0.01338433 237.01230268 -0.01338433 238.51356179 -0.02703905 C245.07980152 0.04934963 245.07980152 0.04934963 248.31127071 2.41248322 C250.68810577 5.98117011 250.17600248 8.28595756 249.70689392 12.50793457 C248.15971013 14.6343934 247.28581127 15.39995507 244.68459755 15.88513273 C243.90416224 15.88616186 243.12372693 15.88719099 242.31964207 15.8882513 C240.96630845 15.90091122 240.96630845 15.90091122 239.58563477 15.91382688 C238.59323711 15.90781684 237.60083945 15.90180679 236.57836914 15.89561462 C234.99842286 15.90369293 234.99842286 15.90369293 233.38655847 15.91193444 C229.83965536 15.92629847 226.29312101 15.91908939 222.74620056 15.9119873 C220.21040546 15.91768644 217.67461292 15.92464892 215.13882446 15.93278503 C208.95554654 15.94891074 202.77240592 15.95080686 196.5891133 15.94557213 C191.56441788 15.94153469 186.5397525 15.94296891 181.51505852 15.94832039 C180.44333576 15.94944302 180.44333576 15.94944302 179.34996204 15.95058833 C177.89860356 15.95211977 176.44724508 15.95365812 174.99588662 15.9552033 C161.37757597 15.96893924 147.75932272 15.96348303 134.14101338 15.95201809 C121.67638625 15.94208496 109.21190755 15.95502577 96.74730331 15.97895228 C83.95543318 16.00332241 71.16363222 16.01295628 58.37173933 16.00629956 C51.18733781 16.00280262 44.00305047 16.00507048 36.81866646 16.02255058 C30.06434261 16.03878012 23.31034822 16.03412352 16.55601692 16.01524544 C14.0727443 16.01154475 11.58945087 16.01471073 9.10619736 16.02513123 C5.72459994 16.03824129 2.34395778 16.02688162 -1.03759766 16.00914001 C-2.02776459 16.01874502 -3.01793153 16.02835003 -4.03810352 16.0382461 C-10.63355938 15.96670812 -10.63355938 15.96670812 -13.89891911 13.69535923 C-15.97710499 10.43476711 -15.89987421 8.28338072 -15.29310608 4.50793457 C-10.93211766 -0.53346112 -6.1896163 -0.05642604 0 0 Z " fill="#040200" transform="translate(154.29310607910156,305.4920654296875)"/>
<path d="M0 0 C0.72252978 -0.00367669 1.44505956 -0.00735338 2.18948418 -0.01114148 C4.61689492 -0.02217771 7.04426287 -0.02602199 9.47169495 -0.02983093 C11.20946895 -0.03609545 12.94724162 -0.04274224 14.68501282 -0.04974365 C19.410155 -0.0671502 24.13528707 -0.07770373 28.86045337 -0.08594918 C31.81085114 -0.09109838 34.76124576 -0.09717404 37.71164131 -0.10346031 C46.93805033 -0.12250847 56.16445134 -0.13674235 65.39087623 -0.14507228 C76.05068525 -0.15485479 86.71028718 -0.18120229 97.37002319 -0.22157317 C105.60447477 -0.2516922 113.83886682 -0.266537 122.07337242 -0.26985329 C126.9942236 -0.27220791 131.91485344 -0.28122211 136.83564568 -0.30631447 C141.46251962 -0.32952768 146.08902539 -0.3338558 150.71594238 -0.32355309 C152.41552515 -0.32305602 154.11512564 -0.32942649 155.8146534 -0.34310913 C158.13225222 -0.36072646 160.44851501 -0.35377353 162.76611328 -0.34057617 C164.71262614 -0.3441587 164.71262614 -0.3441587 166.69846249 -0.34781361 C170.48965322 0.22993623 171.6644145 1.12716231 173.94654846 4.14717102 C174.71899813 7.10633484 174.34434989 9.0144848 173.94654846 12.14717102 C171.59832363 14.70923966 170.14037418 15.12467307 166.67002106 15.52748775 C165.35889595 15.52991765 164.04777084 15.53234755 162.69691467 15.53485107 C161.59958771 15.54292938 161.59958771 15.54292938 160.48009253 15.55117089 C158.02798501 15.56548227 155.57641491 15.55833914 153.12428284 15.55122375 C151.36665411 15.55692563 149.60902908 15.56388918 147.85140991 15.57202148 C143.07668383 15.58998706 138.30214118 15.58877828 133.52739143 15.5830791 C129.54357306 15.57999253 125.55979018 15.58607368 121.57597685 15.59211785 C112.17977677 15.60617227 102.78366759 15.6045938 93.38746643 15.59321594 C83.68755454 15.58173002 73.98791898 15.59581628 64.2880435 15.62261242 C55.96438251 15.64474744 47.64080841 15.65141187 39.31712008 15.64553601 C34.34377203 15.64216041 29.37060119 15.64462155 24.39727783 15.66178703 C19.72193094 15.67721942 15.04699451 15.67334204 10.37166405 15.65448189 C8.65435555 15.65078588 6.93701688 15.65393383 5.2197361 15.66436768 C2.8780741 15.67751063 0.53778448 15.66609136 -1.80381775 15.64837646 C-3.77050541 15.64806254 -3.77050541 15.64806254 -5.77692413 15.64774227 C-9.05345154 15.14717102 -9.05345154 15.14717102 -11.4792099 13.33850193 C-13.75340455 10.1728424 -13.53676843 7.94466089 -13.05345154 4.14717102 C-9.83504146 -0.45055766 -5.1671602 0.01702135 0 0 Z " fill="#020100" transform="translate(152.05345153808594,421.8528289794922)"/>
<path d="M0 0 C6.93 0 13.86 0 21 0 C21.66 1.98 22.32 3.96 23 6 C25.92346184 7.46173092 28.50425179 7.14157916 31.77029419 7.15821838 C32.47437405 7.16315636 33.1784539 7.16809434 33.90386951 7.17318195 C36.27461498 7.18859963 38.64533329 7.19692908 41.01611328 7.20532227 C42.71097047 7.21489744 44.40582525 7.2249073 46.10067749 7.23532104 C50.71196689 7.26241529 55.32326656 7.28340034 59.93459177 7.30332303 C64.74994193 7.32515476 69.56526023 7.35255718 74.38058472 7.37937927 C83.50365388 7.42934428 92.62674069 7.47426895 101.74984443 7.51740164 C112.13423662 7.56674151 122.51859685 7.62167167 132.90295815 7.67708123 C154.26860901 7.79095971 175.63429037 7.89778594 197 8 C197 10.97 197 13.94 197 17 C119.12 17 41.24 17 -39 17 C-39 14.03 -39 11.06 -39 8 C-37.95545654 7.98541748 -36.91091309 7.97083496 -35.8347168 7.95581055 C-31.95985655 7.89784449 -28.08557849 7.82061226 -24.21118164 7.73754883 C-22.53419441 7.70429137 -20.85709503 7.67626192 -19.17993164 7.65356445 C-16.76920775 7.62003263 -14.35951238 7.56772022 -11.94921875 7.51171875 C-11.19912033 7.50532883 -10.44902191 7.4989389 -9.67619324 7.49235535 C-5.64778316 7.38722326 -5.64778316 7.38722326 -2.06567383 5.71801758 C-0.719494 3.74292529 -0.719494 3.74292529 0 0 Z " fill="#D1CFCD" transform="translate(193,219)"/>
<path d="M0 0 C4.09267002 1.05450777 6.27816503 4.18015537 8.50170898 7.62475586 C9.87877936 9.97381697 11.1890949 12.34892126 12.48046875 14.74609375 C12.93486328 15.56529297 13.38925781 16.38449219 13.85742188 17.22851562 C17.16796875 23.27710879 17.16796875 23.27710879 17.16796875 25.55859375 C17.82796875 25.55859375 18.48796875 25.55859375 19.16796875 25.55859375 C19.39484375 24.7490625 19.62171875 23.93953125 19.85546875 23.10546875 C21.49325289 18.67955208 23.7451068 14.84438952 26.16796875 10.80859375 C26.61914062 10.04160156 27.0703125 9.27460938 27.53515625 8.484375 C30.89023607 2.83632643 30.89023607 2.83632643 33.16796875 0.55859375 C40.37810258 -0.01363909 40.37810258 -0.01363909 42.76799011 1.71775818 C44.7394794 4.3100746 44.54221746 6.13870736 44.5402832 9.37524414 C44.54962639 11.16708885 44.54962639 11.16708885 44.55915833 12.99513245 C44.54994858 14.28580124 44.54073883 15.57647003 44.53125 16.90625 C44.53073135 18.24238586 44.53124925 19.57852249 44.53276062 20.91465759 C44.53267094 23.71315928 44.52224999 26.51137259 44.50415039 29.30981445 C44.48144109 32.90022638 44.48092343 36.49021779 44.48766804 40.0806818 C44.49100599 42.83873749 44.48438164 45.59669696 44.4745388 48.35473442 C44.46880899 50.32348206 44.47012378 52.2922461 44.47151184 54.26100159 C44.46197983 55.45241257 44.45244781 56.64382355 44.44262695 57.87133789 C44.43801956 58.92374161 44.43341217 59.97614532 44.42866516 61.06044006 C44.16796875 63.55859375 44.16796875 63.55859375 42.16796875 65.55859375 C40.29296875 65.82421875 40.29296875 65.82421875 38.16796875 65.80859375 C37.46671875 65.81375 36.76546875 65.81890625 36.04296875 65.82421875 C34.16796875 65.55859375 34.16796875 65.55859375 32.16796875 63.55859375 C31.92227603 60.76642584 31.79433737 58.0661877 31.75390625 55.26953125 C31.7345401 54.45110748 31.71517395 53.63268372 31.69522095 52.78945923 C31.63535793 50.17094399 31.58901343 47.55238494 31.54296875 44.93359375 C31.50479511 43.16013689 31.46574374 41.3866987 31.42578125 39.61328125 C31.32965104 35.26187 31.24564524 30.91037196 31.16796875 26.55859375 C30.54148438 27.69039063 29.915 28.8221875 29.26953125 29.98828125 C28.44418653 31.47015018 27.61865603 32.95191566 26.79296875 34.43359375 C26.17421875 35.55314453 26.17421875 35.55314453 25.54296875 36.6953125 C25.14335937 37.41074219 24.74375 38.12617188 24.33203125 38.86328125 C23.9654541 39.52312012 23.59887695 40.18295898 23.22119141 40.86279297 C22.16796875 42.55859375 22.16796875 42.55859375 20.16796875 44.55859375 C17.85546875 44.68359375 17.85546875 44.68359375 15.16796875 43.55859375 C13.14372945 41.08939782 11.70637291 38.34696883 10.16796875 35.55859375 C9.50571289 34.3665332 9.50571289 34.3665332 8.83007812 33.15039062 C7.609375 30.953125 6.38867188 28.75585938 5.16796875 26.55859375 C5.15338623 27.63343018 5.13880371 28.7082666 5.1237793 29.81567383 C5.06581985 33.80234092 4.98858746 37.78844176 4.90551758 41.7746582 C4.87225703 43.50015068 4.84422856 45.22575224 4.8215332 46.95141602 C4.78800722 49.43162541 4.73569469 51.91083405 4.6796875 54.390625 C4.67010262 55.5485833 4.67010262 55.5485833 4.6603241 56.72993469 C4.51468266 62.03137914 4.51468266 62.03137914 2.85864258 64.54956055 C0.00794691 66.25092159 -2.61548208 65.85100731 -5.83203125 65.55859375 C-8.51974663 62.87087837 -8.08524982 61.52072478 -8.09082031 57.76367188 C-8.09712463 56.54901245 -8.10342896 55.33435303 -8.10992432 54.08288574 C-8.10587585 52.76518188 -8.10182739 51.44747803 -8.09765625 50.08984375 C-8.09900301 48.72985769 -8.10094364 47.3698721 -8.10345459 46.0098877 C-8.10640534 43.15840068 -8.10210989 40.30703888 -8.09277344 37.45556641 C-8.08137879 33.79676598 -8.08793854 30.13825895 -8.09991837 26.4794693 C-8.10713837 23.67081483 -8.10484842 20.86223016 -8.09966278 18.05357361 C-8.09767586 16.04714773 -8.10375988 14.04071915 -8.10992432 12.03430176 C-8.10362 10.81964233 -8.09731567 9.60498291 -8.09082031 8.35351562 C-8.08922913 7.28033081 -8.08763794 6.207146 -8.08599854 5.10144043 C-7.57343301 -0.0306203 -4.49990809 0.26982041 0 0 Z " fill="#050301" transform="translate(155.83203125,338.44140625)"/>
<path d="M0 0 C3.41029443 0.81024726 4.88399073 2.954108 7.203125 5.5234375 C9.02416992 8.50610352 9.02416992 8.50610352 10.68359375 11.77734375 C11.13198357 12.65144142 11.13198357 12.65144142 11.58943176 13.54319763 C12.53226386 15.38630681 13.46159048 17.23584197 14.390625 19.0859375 C15.02450863 20.33052773 15.65926711 21.57467279 16.29492188 22.81835938 C18.61986568 27.37556999 20.91822064 31.94602856 23.203125 36.5234375 C23.22294434 35.5039502 23.24276367 34.48446289 23.26318359 33.43408203 C23.33915308 29.65811102 23.42788309 25.88252977 23.52050781 22.10693359 C23.55883352 20.4715951 23.59368007 18.83617126 23.625 17.20068359 C23.67057342 14.8522284 23.72857867 12.50436255 23.7890625 10.15625 C23.80061371 9.42286407 23.81216492 8.68947815 23.82406616 7.93386841 C23.97538159 2.75118091 23.97538159 2.75118091 26.203125 0.5234375 C28.078125 0.2578125 28.078125 0.2578125 30.203125 0.2734375 C30.904375 0.26828125 31.605625 0.263125 32.328125 0.2578125 C34.203125 0.5234375 34.203125 0.5234375 36.203125 2.5234375 C36.45709229 5.06628418 36.45709229 5.06628418 36.46191406 8.31835938 C36.46821838 9.5330188 36.47452271 10.74767822 36.48101807 11.99914551 C36.4769696 13.31684937 36.47292114 14.63455322 36.46875 15.9921875 C36.47009676 17.35217356 36.47203739 18.71215915 36.47454834 20.07214355 C36.47749909 22.92363057 36.47320364 25.77499237 36.46386719 28.62646484 C36.45247254 32.28526527 36.45903229 35.9437723 36.47101212 39.60256195 C36.47823212 42.41121642 36.47594217 45.21980109 36.47075653 48.02845764 C36.46876961 50.03488352 36.47485363 52.0413121 36.48101807 54.04772949 C36.47471375 55.26238892 36.46840942 56.47704834 36.46191406 57.72851562 C36.46032288 58.80170044 36.45873169 59.87488525 36.45709229 60.98059082 C36.203125 63.5234375 36.203125 63.5234375 34.203125 65.5234375 C28.56317589 66.16020595 28.56317589 66.16020595 26.203125 65.5234375 C23.24647449 62.19729889 21.12617565 58.76587281 19.109375 54.8125 C18.55378906 53.73226562 17.99820312 52.65203125 17.42578125 51.5390625 C16.85730469 50.42015625 16.28882813 49.30125 15.703125 48.1484375 C14.5690035 45.93162858 13.43361955 43.71546501 12.296875 41.5 C11.79865234 40.52111816 11.30042969 39.54223633 10.78710938 38.53369141 C9.00475549 35.14644983 7.11807856 31.83734228 5.203125 28.5234375 C5.18330566 29.57321777 5.16348633 30.62299805 5.14306641 31.70458984 C5.06710302 35.59237011 4.97837202 39.47977153 4.88574219 43.3671875 C4.84741396 45.05103079 4.81256788 46.73495705 4.78125 48.41894531 C4.73568213 50.83689056 4.67767577 53.25426278 4.6171875 55.671875 C4.59986069 56.80476456 4.59986069 56.80476456 4.58218384 57.96054077 C4.43086841 63.29569409 4.43086841 63.29569409 2.203125 65.5234375 C-0.51142456 65.85095984 -3.04918259 65.65428 -5.796875 65.5234375 C-7.58783545 63.73247705 -6.92454291 61.06010965 -6.92626953 58.64257812 C-6.92942169 57.38457397 -6.93257385 56.12656982 -6.93582153 54.83044434 C-6.93403175 53.44685837 -6.9319808 52.06327272 -6.9296875 50.6796875 C-6.93036059 49.27103661 -6.93133065 47.86238584 -6.93258667 46.45373535 C-6.93406342 43.49795427 -6.93190983 40.54220336 -6.92724609 37.58642578 C-6.92154881 33.78969166 -6.92482793 29.99302822 -6.93081856 26.19629669 C-6.93442479 23.28647322 -6.9332853 20.37666662 -6.93069077 17.46684265 C-6.93002167 16.0665435 -6.93084932 14.66624283 -6.93317032 13.26594543 C-6.93569783 11.31206286 -6.93116533 9.35817495 -6.92626953 7.40429688 C-6.92547394 6.29034546 -6.92467834 5.17639404 -6.92385864 4.02868652 C-6.68723654 -0.63960989 -4.15673856 0.30144287 0 0 Z " fill="#030200" transform="translate(285.796875,338.4765625)"/>
<path d="M0 0 C1.91015625 0.1328125 1.91015625 0.1328125 3.91015625 1.1328125 C3.91602249 1.71052902 3.92188873 2.28824554 3.92793274 2.88346863 C3.99191979 8.90220713 4.07635318 14.92041355 4.17260742 20.9387207 C4.20583976 23.184092 4.23387694 25.4295465 4.2565918 27.67504883 C4.29016827 30.90481993 4.34248698 34.13382977 4.3984375 37.36328125 C4.40482742 38.36554245 4.41121735 39.36780365 4.4178009 40.4004364 C4.53446116 45.9440096 4.78494463 50.00760088 8.91015625 54.1328125 C11.13731791 54.41021715 11.13731791 54.41021715 13.72265625 54.4453125 C14.59535156 54.48269531 15.46804688 54.52007812 16.3671875 54.55859375 C18.96134735 54.29396865 18.96134735 54.29396865 21.03540039 52.7824707 C24.00692796 48.58270657 23.47398701 44.33452368 23.44921875 39.3125 C23.46101166 38.25749298 23.47280457 37.20248596 23.48495483 36.11550903 C23.52026782 32.74612671 23.52939223 29.37736493 23.53515625 26.0078125 C23.5514702 22.63130477 23.57343563 19.25507614 23.60678101 15.87869263 C23.62649222 13.77758998 23.6357372 11.6763589 23.63369751 9.57516479 C23.64413589 8.1532634 23.64413589 8.1532634 23.65478516 6.70263672 C23.65604401 5.86642792 23.65730286 5.03021912 23.65859985 4.16867065 C23.91015625 2.1328125 23.91015625 2.1328125 25.91015625 0.1328125 C27.78515625 -0.1328125 27.78515625 -0.1328125 29.91015625 -0.1171875 C30.61140625 -0.12234375 31.31265625 -0.1275 32.03515625 -0.1328125 C33.91015625 0.1328125 33.91015625 0.1328125 35.91015625 2.1328125 C36.17758179 4.17971802 36.17758179 4.17971802 36.20068359 6.73095703 C36.2134433 7.68600128 36.226203 8.64104553 36.23934937 9.62503052 C36.24157501 10.6614267 36.24380066 11.69782288 36.24609375 12.765625 C36.25275055 13.83142792 36.25940735 14.89723083 36.26626587 15.99533081 C36.27640884 18.25663525 36.28108238 20.51796971 36.28076172 22.77929688 C36.28511248 26.22316738 36.32135372 29.66573335 36.359375 33.109375 C36.36524743 35.30728729 36.36921397 37.50520567 36.37109375 39.703125 C36.38546478 40.72737579 36.39983582 41.75162659 36.41464233 42.80691528 C36.37059714 49.77852727 35.27968633 55.31093476 30.56893921 60.65408325 C24.84679221 65.91903769 18.14836781 66.60299568 10.6953125 66.44921875 C4.9993767 65.80213488 0.56561153 63.74582021 -3.52734375 59.7578125 C-7.43897412 53.18627347 -7.37076726 47.08464602 -7.3203125 39.64453125 C-7.31985428 38.54559036 -7.31939606 37.44664948 -7.31892395 36.31440735 C-7.31591105 34.0005281 -7.30805365 31.68665072 -7.2956543 29.37280273 C-7.27731905 25.81552018 -7.27514528 22.2584969 -7.27539062 18.70117188 C-7.27047814 16.45312273 -7.264651 14.20507536 -7.2578125 11.95703125 C-7.25669968 10.8873259 -7.25558685 9.81762054 -7.25444031 8.71549988 C-7.24487053 7.243106 -7.24487053 7.243106 -7.23510742 5.7409668 C-7.23129562 4.87304001 -7.22748383 4.00511322 -7.22355652 3.11088562 C-6.92865306 -1.25175394 -3.63384285 0.01318999 0 0 Z " fill="#040201" transform="translate(350.08984375,338.8671875)"/>
<path d="M0 0 C0.81605209 -0.00095673 1.63210419 -0.00191345 2.47288513 -0.00289917 C4.1986397 -0.00358006 5.92439683 -0.00173211 7.65014648 0.00244141 C10.30132758 0.00779782 12.95233978 0.00248983 15.60351562 -0.00390625 C17.27734413 -0.00324559 18.95117252 -0.00196467 20.625 0 C21.42289444 -0.00202423 22.22078888 -0.00404846 23.04286194 -0.00613403 C28.63113831 0.01785706 28.63113831 0.01785706 29.74609375 1.1328125 C29.93359375 4.5703125 29.93359375 4.5703125 29.74609375 8.1328125 C27.74609375 10.1328125 27.74609375 10.1328125 25.13232422 10.35986328 C24.05354004 10.34938965 22.97475586 10.33891602 21.86328125 10.328125 C20.69667969 10.32167969 19.53007812 10.31523437 18.328125 10.30859375 C17.10480469 10.29183594 15.88148438 10.27507812 14.62109375 10.2578125 C13.39003906 10.24878906 12.15898437 10.23976563 10.890625 10.23046875 C7.84236569 10.20683883 4.79420586 10.17096689 1.74609375 10.1328125 C1.74609375 16.0728125 1.74609375 22.0128125 1.74609375 28.1328125 C6.59275486 28.05379424 6.59275486 28.05379424 11.43896484 27.95263672 C13.2089665 27.9380008 14.9788183 28.03352736 16.74609375 28.1328125 C18.74609375 30.1328125 18.74609375 30.1328125 18.99609375 32.6328125 C18.74609375 35.1328125 18.74609375 35.1328125 16.74609375 37.1328125 C14.1565793 37.27829084 11.70423984 37.31930302 9.12109375 37.2578125 C5.47046875 37.1959375 5.47046875 37.1959375 1.74609375 37.1328125 C1.74609375 43.0728125 1.74609375 49.0128125 1.74609375 55.1328125 C4.52660156 55.09800781 4.52660156 55.09800781 7.36328125 55.0625 C9.78254807 55.04374599 12.20181923 55.0255454 14.62109375 55.0078125 C15.84441406 54.99105469 17.06773437 54.97429687 18.328125 54.95703125 C19.49472656 54.95058594 20.66132813 54.94414062 21.86328125 54.9375 C22.94206543 54.92702637 24.02084961 54.91655273 25.13232422 54.90576172 C27.74609375 55.1328125 27.74609375 55.1328125 29.74609375 57.1328125 C29.93359375 60.6953125 29.93359375 60.6953125 29.74609375 64.1328125 C27.93505389 65.94385236 25.45303914 65.26141187 23.04286194 65.27175903 C22.2449675 65.2697348 21.44707306 65.26771057 20.625 65.265625 C19.40235695 65.26706009 19.40235695 65.26706009 18.15501404 65.26852417 C16.42747928 65.26920603 14.69994198 65.26735134 12.97241211 65.26318359 C10.32334647 65.25784225 7.67445091 65.26312482 5.02539062 65.26953125 C3.35026004 65.26887033 1.67512956 65.26758889 0 65.265625 C-1.19380531 65.26866135 -1.19380531 65.26866135 -2.41172791 65.27175903 C-8.02399537 65.24776794 -8.02399537 65.24776794 -10.25390625 64.1328125 C-10.25390625 43.3428125 -10.25390625 22.5528125 -10.25390625 1.1328125 C-7.03737346 -0.4754539 -3.53239096 -0.00898435 0 0 Z " fill="#040201" transform="translate(231.25390625,338.8671875)"/>
<path d="M0 0 C1.04884872 -0.00241196 2.09769745 -0.00482391 3.17832947 -0.00730896 C5.39146717 -0.00633107 7.6046295 0.0070486 9.81762695 0.03198242 C13.20673547 0.06632409 16.59324131 0.05262889 19.98242188 0.03320312 C22.13412569 0.04010067 24.28582277 0.04977222 26.4375 0.0625 C27.95791649 0.0550602 27.95791649 0.0550602 29.50904846 0.04747009 C36.51065634 0.16485843 36.51065634 0.16485843 39.79101562 2.53710938 C42.11892637 6.11414295 41.61971619 8.42255425 41.15234375 12.62890625 C39.54922034 14.88431036 38.66249275 15.54029917 35.92030334 16.0165863 C34.61602638 16.02469078 34.61602638 16.02469078 33.28540039 16.03295898 C32.29750015 16.04564316 31.30959991 16.05832733 30.29176331 16.07139587 C28.69327797 16.06699242 28.69327797 16.06699242 27.0625 16.0625 C25.41839394 16.07036278 25.41839394 16.07036278 23.74107361 16.0783844 C21.42187345 16.08481106 19.10264072 16.08345932 16.78344727 16.07495117 C13.23199458 16.06644732 9.68215281 16.09518578 6.13085938 16.12695312 C3.87890673 16.12856532 1.62695124 16.12798726 -0.625 16.125 C-1.68863266 16.13623398 -2.75226532 16.14746796 -3.84812927 16.15904236 C-11.18274204 16.08961551 -11.18274204 16.08961551 -14.51391602 13.78149414 C-16.38097492 10.76815745 -16.48741922 9.11206018 -15.84765625 5.62890625 C-11.54290236 -0.51839775 -6.8950495 -0.09036893 0 0 Z " fill="#030200" transform="translate(362.84765625,421.37109375)"/>
<path d="M0 0 C1.60875 0.020625 3.2175 0.04125 4.875 0.0625 C4.875 5.6725 4.875 11.2825 4.875 17.0625 C-5.21339779 17.67023481 -5.21339779 17.67023481 -9.3125 14.9375 C-11.46297846 11.52639624 -11.86658034 10.01759517 -11.125 6.0625 C-7.78500462 1.05250692 -5.88301866 -0.07542332 0 0 Z " fill="#CCCAC8" transform="translate(68.125,47.9375)"/>
<path d="M0 0 C0 5.61 0 11.22 0 17 C-9.01803607 17.48096192 -9.01803607 17.48096192 -13.0625 15.5 C-15.68885126 12.11115966 -16.52487845 9.27521966 -16 5 C-12.17338354 -1.55991394 -6.80632447 -0.41001955 0 0 Z " fill="#CCCAC8" transform="translate(73,447)"/>
<path d="M0 0 C1.60875 0.020625 3.2175 0.04125 4.875 0.0625 C4.875 5.6725 4.875 11.2825 4.875 17.0625 C-4.7692151 17.49433053 -4.7692151 17.49433053 -9.125 14.0625 C-11.125 12.0625 -11.125 12.0625 -11.5 9.25 C-11.0425983 5.36208551 -9.82007803 3.83684503 -7.125 1.0625 C-4.60024538 -0.19987731 -2.81299534 -0.03606404 0 0 Z " fill="#CDCBC9" transform="translate(68.125,366.9375)"/>
<path d="M0 0 C0 5.61 0 11.22 0 17 C-10.08839779 17.60773481 -10.08839779 17.60773481 -14.1875 14.875 C-16.34663968 11.45015775 -16.82630866 9.96628159 -16 6 C-10.7561015 -0.20987981 -7.72210966 -0.11031585 0 0 Z " fill="#CBCAC8" transform="translate(73,287)"/>
<path d="M0 0 C0 5.61 0 11.22 0 17 C-9.93974684 17.44506329 -9.93974684 17.44506329 -14 14 C-16.06528536 11.04959234 -16.6066975 8.55351395 -16 5 C-11.8468087 -1.44460718 -6.97160449 -0.41997617 0 0 Z " fill="#CCCAC8" transform="translate(73,208)"/>
<path d="M0 0 C2.79947917 0.06510417 5.59895833 0.13020833 8.3984375 0.1953125 C8.3984375 5.8053125 8.3984375 11.4153125 8.3984375 17.1953125 C-0.68823538 17.67993505 -0.68823538 17.67993505 -4.6640625 15.5703125 C-7.05607272 12.63817093 -7.6015625 10.97513678 -7.6015625 7.1953125 C-4.32231 0.32449775 -4.32231 0.32449775 0 0 Z " fill="#CECCCA" transform="translate(64.6015625,127.8046875)"/>
<path d="M0 0 C5.94 0 11.88 0 18 0 C17.125 10.625 17.125 10.625 16 14 C11.05 14 6.1 14 1 14 C-0.21451659 9.14193366 -0.0658303 5.00310299 0 0 Z " fill="#FBFBFB" transform="translate(263,90)"/>
</svg>
